<?xml version="1.0" encoding="UTF-8"?>
<svg width="123px" height="56px" viewBox="0 0 123 56" version="1.1" xmlns="http://www.w3.org/2000/svg" xmlns:xlink="http://www.w3.org/1999/xlink">
    <!-- Generator: Sketch 48.2 (47327) - http://www.bohemiancoding.com/sketch -->
    <title>logotipo</title>
    <desc>Created with Sketch.</desc>
    <defs>
        <polygon id="path-1" points="0 68 148 68 148 0 0 0"></polygon>
        <polygon id="path-3" points="0 68 148 68 148 0 0 0"></polygon>
        <polygon id="path-5" points="0 0.094 0 17.176 6.951 17.176 6.951 0.094"></polygon>
        <polygon id="path-7" points="0 68 148 68 148 0 0 0"></polygon>
        <polygon id="path-9" points="0 68 148 68 148 0 0 0"></polygon>
    </defs>
    <g id="Page-1" stroke="none" stroke-width="1" fill="none" fill-rule="evenodd">
        <g id="logotipo" transform="translate(-14.000000, -4.000000)">
            <g id="Clipped">
                <mask id="mask-2" fill="white">
                    <use xlink:href="#path-1"></use>
                </mask>
                <g id="a"></g>
                <path d="M82.586,33.12 C84.806,30.523 87.028,27.928 89.248,25.332 L89.248,14.255 L82.586,14.255 L82.586,33.12 Z M68.72,33.115 L75.276,25.43 L75.276,14.255 L68.72,14.255 L68.72,33.114 L68.72,33.115 Z M54.787,32.931 L61.362,25.423 L61.362,14.14 L54.787,14.14 L54.787,32.931 Z M60.744,5.889 L55.736,12.346 L61.776,12.346 L66.193,5.889 L60.744,5.889 Z M62.969,16.052 L62.969,34.46 L67.112,34.46 L67.112,7.529 C65.772,9.572 64.44,11.644 62.969,13.547 L62.969,16.052 Z M74.638,5.917 L69.564,12.463 L75.689,12.463 L80.167,5.917 L74.637,5.917 L74.638,5.917 Z M76.883,16.152 L76.883,34.46 L80.979,34.46 L80.979,7.72 C79.655,9.74 78.336,11.783 76.883,13.664 L76.883,16.152 Z M88.611,5.917 L83.536,12.463 L89.662,12.463 L94.14,5.917 L88.61,5.917 L88.611,5.917 Z M94.952,28.136 L94.952,7.72 C93.627,9.74 92.309,11.783 90.856,13.664 L90.856,33.07 L94.952,28.136 Z M96.559,27.316 C96.559,27.688 96.615,28.117 96.559,28.486 C96.433,29.319 95.546,30.056 95.055,30.648 L90.62,35.99 C90.14,36.569 89.248,36.11 89.248,35.356 L89.248,27.926 L82.351,35.99 C82.156,36.218 81.931,36.285 81.719,36.252 L76.079,36.252 C75.644,36.252 75.276,35.84 75.276,35.356 L75.276,28.028 C73.011,30.682 70.748,33.335 68.485,35.99 C68.288,36.219 68.062,36.286 67.849,36.252 L62.166,36.252 C61.731,36.252 61.362,35.84 61.362,35.356 L61.362,27.987 L54.551,35.765 C54.063,36.322 53.179,35.9 53.179,35.131 L53.179,13.243 C53.179,13.033 53.251,12.839 53.365,12.683 C53.38,12.662 53.392,12.64 53.408,12.618 C53.411,12.616 53.412,12.612 53.415,12.608 C55.485,9.939 57.461,7.115 59.65,4.566 C60.41,3.683 62.156,4.096 63.157,4.096 L67.809,4.096 C67.9255891,4.09918281 68.039469,4.13186736 68.14,4.191 C68.454,4.279 68.72,4.554 68.72,5.022 L68.72,10.787 C70.293,8.704 71.854,6.596 73.524,4.622 C74.266,3.743 75.884,4.125 76.876,4.125 L81.782,4.125 C81.925,4.125 82.065,4.179 82.188,4.265 C82.34,4.353 82.464,4.495 82.53,4.69 C82.6053576,4.85635225 82.6249983,5.04258761 82.586,5.221 L82.586,10.928 C84.195,8.798 85.789,6.639 87.496,4.622 C88.239,3.743 89.857,4.125 90.849,4.125 L95.756,4.125 C95.898,4.125 96.038,4.179 96.162,4.265 C96.3240445,4.3601842 96.4456842,4.51134468 96.504,4.69 C96.5785369,4.85659331 96.59781,5.04266642 96.559,5.221 L96.559,27.316 Z" id="Shape" fill="#F05754" fill-rule="nonzero" mask="url(#mask-2)"></path>
            </g>
            <g id="Clipped">
                <mask id="mask-4" fill="white">
                    <use xlink:href="#path-3"></use>
                </mask>
                <g id="a"></g>
                <g id="Group" mask="url(#mask-4)">
                    <g transform="translate(14.352000, 41.650000)" id="Clipped">
                        <g>
                            <mask id="mask-6" fill="white">
                                <use xlink:href="#path-5"></use>
                            </mask>
                            <g id="c"></g>
                            <polygon id="Shape" fill="#F05754" fill-rule="nonzero" mask="url(#mask-6)" points="6.951 0.094 6.951 17.176 2.951 17.176 2.951 3.75 0 3.75 0 0.094"></polygon>
                        </g>
                    </g>
                </g>
            </g>
            <g id="Clipped">
                <mask id="mask-8" fill="white">
                    <use xlink:href="#path-7"></use>
                </mask>
                <g id="a"></g>
                <path d="M26.673,50.273 C26.673,54.173 27.306,55.805 28.858,55.805 C30.388,55.805 31.022,54.172 31.022,50.273 C31.022,46.349 30.388,44.741 28.858,44.741 C27.306,44.741 26.673,46.349 26.673,50.273 M34.847,50.273 C34.847,55.853 32.705,58.948 28.857,58.948 C24.967,58.948 22.847,55.854 22.847,50.273 C22.847,44.693 24.967,41.622 28.857,41.622 C32.705,41.622 34.847,44.692 34.847,50.273 M39.583,50.273 C39.583,54.173 40.218,55.805 41.769,55.805 C43.299,55.805 43.933,54.172 43.933,50.273 C43.933,46.349 43.3,44.741 41.769,44.741 C40.218,44.741 39.583,46.349 39.583,50.273 M47.758,50.273 C47.758,55.853 45.616,58.948 41.769,58.948 C37.879,58.948 35.759,55.854 35.759,50.273 C35.759,44.693 37.879,41.622 41.769,41.622 C45.616,41.622 47.759,44.692 47.759,50.273" id="Shape" fill="#F05754" fill-rule="nonzero" mask="url(#mask-8)"></path>
            </g>
            <g id="Clipped">
                <mask id="mask-10" fill="white">
                    <use xlink:href="#path-9"></use>
                </mask>
                <g id="a"></g>
                <path d="M54.715,42 L54.715,55.025 L60.994,55.025 L60.994,59 L51.127,59 L51.127,42 L54.715,42 Z M69.678,54.367 L69.678,53.222 L67.361,53.222 C66.268,53.222 65.722,53.66 65.722,54.586 C65.722,55.488 66.312,56.072 67.319,56.072 C68.476,56.072 69.439,55.366 69.679,54.367 L69.678,54.367 Z M73.503,50.247 L73.503,58.827 L69.678,58.827 L69.678,57.34 C68.913,58.437 67.711,59.021 66.116,59.021 C63.58,59.021 62.072,57.316 62.072,54.904 C62.072,52.393 63.668,50.955 66.597,50.907 L69.678,50.907 L69.678,50.76 C69.678,49.518 68.913,48.787 67.427,48.787 C66.443,48.787 65.154,49.153 63.885,49.835 L62.815,46.911 C64.673,45.984 66.378,45.472 68.324,45.472 C71.58,45.472 73.482,47.227 73.504,50.248 L73.503,50.247 Z M83.39,52.296 C83.39,50.321 82.363,49.006 80.854,49.006 C79.325,49.006 78.297,50.346 78.297,52.296 C78.297,54.245 79.325,55.585 80.854,55.585 C82.363,55.585 83.39,54.245 83.39,52.295 L83.39,52.296 Z M87.28,40.745 L87.28,58.827 L83.39,58.827 L83.39,57.12 C82.581,58.338 81.378,58.996 79.892,58.996 C76.57,58.996 74.385,56.266 74.385,52.173 C74.385,48.153 76.549,45.495 79.805,45.495 C81.335,45.495 82.559,46.178 83.39,47.372 L83.39,40.744 L87.28,40.744 L87.28,40.745 Z M96.26,45.473 L96.26,49.445 C94.097,49.199 92.654,50.273 92.458,52.1 L92.458,58.827 L88.568,58.827 L88.568,45.643 L92.458,45.643 L92.458,47.836 C93.266,46.326 94.6,45.473 96.261,45.473 L96.26,45.473 Z M97.242,58.825 L101.112,58.825 L101.112,45.643 L97.242,45.643 L97.242,58.825 Z M101.242,41.891 C101.242,43.254 100.389,44.206 99.187,44.206 C97.985,44.206 97.132,43.254 97.132,41.891 C97.132,40.525 97.985,39.575 99.187,39.575 C100.389,39.575 101.243,40.525 101.243,41.891 L101.242,41.891 Z M102.891,58.825 L106.782,58.825 L106.782,40.743 L102.891,40.743 L102.891,58.825 Z M108.508,58.825 L112.399,58.825 L112.399,40.743 L108.509,40.743 L108.508,58.825 Z M117.209,52.296 C117.209,54.245 118.235,55.561 119.744,55.561 C121.274,55.561 122.301,54.245 122.301,52.296 C122.301,50.321 121.273,49.006 119.744,49.006 C118.234,49.006 117.209,50.321 117.209,52.296 Z M126.214,52.223 C126.214,56.291 123.634,58.973 119.744,58.973 C115.854,58.973 113.296,56.291 113.296,52.223 C113.296,48.177 115.853,45.496 119.744,45.496 C123.634,45.496 126.214,48.177 126.214,52.223 Z M131.46,48.47 C130.804,48.47 130.345,48.738 130.345,49.298 C130.345,51.028 136.553,50.2 136.531,54.781 C136.531,57.487 134.411,59.021 131.525,59.021 C129.537,59.021 127.635,58.388 126.192,57.145 L127.416,54.342 C128.772,55.391 130.301,55.975 131.612,55.975 C132.334,55.975 132.859,55.708 132.859,55.171 C132.859,53.367 126.76,54.271 126.76,49.711 C126.76,46.959 128.837,45.449 131.612,45.449 C133.317,45.449 135.044,45.984 136.531,46.982 L135.219,49.81 C133.755,48.957 132.422,48.47 131.459,48.47 L131.46,48.47 Z" id="Shape" fill="#020202" fill-rule="nonzero" mask="url(#mask-10)"></path>
            </g>
        </g>
    </g>
</svg>